<?xml version="1.0" encoding="UTF-8"?>
<svg width="40px" height="40px" viewBox="0 0 40 40" version="1.1" xmlns="http://www.w3.org/2000/svg" xmlns:xlink="http://www.w3.org/1999/xlink">
    <title>Cursor/Copy备份</title>
    <g id="页面-1" stroke="none" stroke-width="1" fill="none" fill-rule="evenodd">
        <g id="HarmonyOS-cursor-symbol" transform="translate(-382.000000, -71.000000)">
            <g id="Cursor/Forbid备份" transform="translate(381.000000, 70.000000)">
                <rect id="矩形" fill="#64BB5C" fill-rule="evenodd" x="16" y="1" width="24" height="24" rx="12"></rect>
                <g id="ic_add" stroke-width="1" fill-rule="evenodd" transform="translate(22.000000, 7.000000)" fill="#FFFFFF">
                    <path d="M6.15,0 C6.48137085,-6.08718376e-17 6.75,0.26862915 6.75,0.6 L6.75,11.4 C6.75,11.7313708 6.48137085,12 6.15,12 L5.85,12 C5.51862915,12 5.25,11.7313708 5.25,11.4 L5.25,6.749 L0.6,6.75 C0.26862915,6.75 0,6.48137085 0,6.15 L0,5.85 C0,5.51862915 0.26862915,5.25 0.6,5.25 L5.25,5.249 L5.25,0.6 C5.25,0.26862915 5.51862915,-3.83217372e-16 5.85,0 L6.15,0 Z M7.649,5.25 L11.4,5.25 C11.7313708,5.25 12,5.51862915 12,5.85 L12,6.15 C12,6.48137085 11.7313708,6.75 11.4,6.75 L7.649,6.75 L7.649,5.25 Z" id="形状结合"></path>
                </g>
            </g>
        </g>
    </g>
</svg>