<?xml version="1.0" encoding="UTF-8"?>
<svg width="38px" height="39px" viewBox="0 0 38 39" version="1.1" xmlns="http://www.w3.org/2000/svg" xmlns:xlink="http://www.w3.org/1999/xlink">
    <title>Cursor/Copy备份</title>
    <g id="页面-1" stroke="none" stroke-width="1" fill="none" fill-rule="evenodd">
        <g id="HarmonyOS-cursor-symbol" transform="translate(-382.000000, -71.000000)">
            <g id="Cursor/Forbid备份" transform="translate(381.000000, 70.000000)">
                <path d="M13.15,22 C13.4813708,22 13.75,22.2686292 13.75,22.6 L13.75,33.4 C13.75,33.7313708 13.4813708,34 13.15,34 L12.85,34 C12.5186292,34 12.25,33.7313708 12.25,33.4 L12.25,28.749 L7.6,28.75 C7.26862915,28.75 7,28.4813708 7,28.15 L7,27.85 C7,27.5186292 7.26862915,27.25 7.6,27.25 L12.25,27.249 L12.25,22.6 C12.25,22.2686292 12.5186292,22 12.85,22 L13.15,22 Z M14.649,27.25 L18.4,27.25 C18.7313708,27.25 19,27.5186292 19,27.85 L19,28.15 C19,28.4813708 18.7313708,28.75 18.4,28.75 L14.649,28.75 L14.649,27.25 Z" id="形状结合" fill="#FFFFFF" fill-rule="evenodd"></path>
                <rect id="矩形" fill="#64BB5C" fill-rule="evenodd" x="1" y="1" width="38" height="39" rx="12"></rect>
                <g id="ic_add" stroke-width="1" fill-rule="evenodd" transform="translate(7.000000, 15.000000)" fill="#FFFFFF">
                    <path d="M6.15,0 C6.48137085,-6.08718376e-17 6.75,0.26862915 6.75,0.6 L6.75,11.4 C6.75,11.7313708 6.48137085,12 6.15,12 L5.85,12 C5.51862915,12 5.25,11.7313708 5.25,11.4 L5.25,6.749 L0.6,6.75 C0.26862915,6.75 0,6.48137085 0,6.15 L0,5.85 C0,5.51862915 0.26862915,5.25 0.6,5.25 L5.25,5.249 L5.25,0.6 C5.25,0.26862915 5.51862915,-3.83217372e-16 5.85,0 L6.15,0 Z M7.649,5.25 L11.4,5.25 C11.7313708,5.25 12,5.51862915 12,5.85 L12,6.15 C12,6.48137085 11.7313708,6.75 11.4,6.75 L7.649,6.75 L7.649,5.25 Z" id="形状结合"></path>
                </g>
                <text id="8" font-family="HarmonyHeiTi" font-size="16" font-weight="normal" fill="#FFFFFF">
                    <tspan x="22.88" y="27">8</tspan>
                </text>
            </g>
        </g>
    </g>
</svg>