<?xml version="1.0" encoding="UTF-8"?>
<svg width="40px" height="40px" viewBox="0 0 40 40" version="1.1" xmlns="http://www.w3.org/2000/svg" xmlns:xlink="http://www.w3.org/1999/xlink">
    <title>Cursor/Copy备份</title>
    <g id="页面-1" stroke="none" stroke-width="1" fill="none" fill-rule="evenodd">
        <g id="HarmonyOS-cursor-symbol" transform="translate(-382.000000, -71.000000)">
            <g id="Cursor/Forbid备份" transform="translate(381.000000, 70.000000)">
                <rect id="矩形" fill="#00CB87" fill-rule="evenodd" x="10" y="1" width="30" height="24" rx="12"></rect>
                <g id="ic_add" stroke-width="1" fill-rule="evenodd" transform="translate(9.000000, 2.400000)" fill="#FFFFFF">
                    <path stroke="null" d="m12.64537,7.74074c0.19841,0 0.35926,0.16914 0.35926,0.37778l0,6.80001c0,0.20864 -0.16085,0.37778 -0.35926,0.37778l-0.17963,0c-0.19841,0 -0.35926,-0.16914 -0.35926,-0.37778l0,-2.92841l-2.78426,0.00063c-0.19841,0 -0.35926,-0.16914 -0.35926,-0.37778l0,-0.18889c0,-0.20864 0.16085,-0.37778 0.35926,-0.37778l2.78426,-0.00063l0,-2.92715c0,-0.20864 0.16085,-0.37778 0.35926,-0.37778l0.17963,0zm0.89755,3.30556l2.24597,0c0.19841,0 0.35926,0.16914 0.35926,0.37778l0,0.18889c0,0.20864 -0.16085,0.37778 -0.35926,0.37778l-2.24597,0l0,-0.94445z" id="形状结合"/>
                </g>
                <text id="8" font-family="HarmonyHeiTi" font-size="14" font-weight="normal" fill="#FFFFFF">
                    <tspan x="25.88" y="18.38">1</tspan>
                </text>
            </g>
        </g>
    </g>
</svg>