<?xml version="1.0" encoding="UTF-8"?>
<svg width="40px" height="40px" viewBox="0 0 40 40" version="1.1" xmlns="http://www.w3.org/2000/svg" xmlns:xlink="http://www.w3.org/1999/xlink">
    <title>Converted SVG</title>
    <g id="Layer-1" stroke="none" stroke-width="1" fill="none" fill-rule="evenodd">
        <g id="Graphic" transform="translate(8, 8)" fill="#111111" stroke="#FFFFFF">
            <path d="M12 0C5.37 0 0 5.37 0 12C0 18.62 5.37 24 12 24C18.62 24 24 18.62 24 12C24 5.37 18.62 0 12 0ZM12 4C7.58 4 4 7.58 4 12C4 16.41 7.58 20 12 20C16.41 20 20 16.41 20 12C20 7.58 16.41 4 12 4Z" id="Circle"></path>
            <path d="M0.41 7.2C-0.2 8.67 -0.5 10.27 -0.5 12C-0.5 13.72 -0.2 15.32 0.41 16.79C1.02 18.27 1.94 19.61 3.16 20.83C4.38 22.05 5.72 22.97 7.2 23.58C8.67 24.19 10.27 24.5 12 24.5C13.72 24.5 15.32 24.19 16.79 23.58C18.27 22.97 19.61 22.05 20.83 20.83C22.05 19.61 22.97 18.27 23.58 16.79C24.19 15.32 24.5 13.72 24.5 12C24.5 10.27 24.19 8.67 23.58 7.2C22.97 5.72 22.05 4.38 20.83 3.16C19.61 1.94 18.27 1.02 16.79 0.41C15.32 -0.2 13.72 -0.5 12 -0.5C10.27 -0.5 8.67 -0.2 7.2 0.41C5.72 1.02 4.38 1.94 3.16 3.16C1.94 4.38 1.02 5.72 0.41 7.2ZM12 0C5.37 0 0 5.37 0 12C0 18.62 5.37 24 12 24C18.62 24 24 18.62 24 12C24 5.37 18.62 0 12 0ZM12 4C7.58 4 4 7.58 4 12C4 16.41 7.58 20 12 20C16.41 20 20 16.41 20 12C20 7.58 16.41 4 12 4ZM5.04 14.87C4.68 13.99 4.5 13.03 4.5 12C4.5 10.96 4.68 10 5.04 9.12C5.41 8.23 5.96 7.42 6.69 6.69C7.42 5.96 8.23 5.41 9.12 5.04C10 4.68 10.96 4.5 12 4.5C13.03 4.5 13.99 4.68 14.87 5.04C15.76 5.41 16.57 5.96 17.3 6.69C18.03 7.42 18.58 8.23 18.95 9.12C19.31 10 19.5 10.96 19.5 12C19.5 13.03 19.31 13.99 18.95 14.87C18.58 15.76 18.03 16.57 17.3 17.3C16.57 18.03 15.76 18.58 14.87 18.95C13.99 19.31 13.03 19.5 12 19.5C10.96 19.5 10 19.31 9.12 18.95C8.23 18.58 7.42 18.03 6.69 17.3C5.96 16.57 5.41 15.76 5.04 14.87Z" id="Inner-Circle"></path>
        </g>
    </g>
</svg>
