<?xml version="1.0" encoding="UTF-8"?>
<svg width="38px" height="39px" viewBox="0 0 38 39" version="1.1" xmlns="http://www.w3.org/2000/svg" xmlns:xlink="http://www.w3.org/1999/xlink">
    <title>Cursor/Copy备份</title>
    <g id="页面-1" stroke="none" stroke-width="1" fill="none" fill-rule="evenodd">
        <g id="HarmonyOS-cursor-symbol" transform="translate(-382.000000, -71.000000)">
            <g id="Cursor/Forbid备份" transform="translate(381.000000, 70.000000)">
                <path d="M13.15,22 C13.4813708,22 13.75,22.2686292 13.75,22.6 L13.75,33.4 C13.75,33.7313708 13.4813708,34 13.15,34 L12.85,34 C12.5186292,34 12.25,33.7313708 12.25,33.4 L12.25,28.749 L7.6,28.75 C7.26862915,28.75 7,28.4813708 7,28.15 L7,27.85 C7,27.5186292 7.26862915,27.25 7.6,27.25 L12.25,27.249 L12.25,22.6 C12.25,22.2686292 12.5186292,22 12.85,22 L13.15,22 Z M14.649,27.25 L18.4,27.25 C18.7313708,27.25 19,27.5186292 19,27.85 L19,28.15 C19,28.4813708 18.7313708,28.75 18.4,28.75 L14.649,28.75 L14.649,27.25 Z" id="形状结合" fill="#FFFFFF" fill-rule="evenodd"></path>
                <rect id="矩形" fill="#0000ff" fill-rule="evenodd" x="1" y="1" width="38" height="39" rx="12"></rect>
                <text id="8" font-family="HarmonyHeiTi" font-size="16" font-weight="normal" fill="#FFFFFF">
                    <tspan x="15" y="27">8</tspan>
                </text>
            </g>
        </g>
    </g>
</svg>